<mxfile host="app.diagrams.net" modified="2022-04-12T12:09:12.245Z" agent="5.0 (Windows NT 10.0; Win64; x64) AppleWebKit/537.36 (KHTML, like Gecko) Chrome/100.0.4896.75 Safari/537.36" etag="rS3nHEVCzEghfmAYUWVM" version="17.0.0" type="github">
  <diagram id="wFE0QG_FPsp0jaGvCLVb" name="Page-1">
    <mxGraphModel dx="1705" dy="772" grid="1" gridSize="10" guides="1" tooltips="1" connect="1" arrows="1" fold="1" page="1" pageScale="1" pageWidth="850" pageHeight="1100" math="0" shadow="0">
      <root>
        <mxCell id="0" />
        <mxCell id="1" parent="0" />
        <mxCell id="_5mSTuPxr-ZiKRkBDSY7-1" value="" style="swimlane;fontStyle=2;childLayout=stackLayout;horizontal=1;startSize=28;horizontalStack=1;resizeParent=1;resizeParentMax=0;resizeLast=0;collapsible=0;marginBottom=0;swimlaneFillColor=none;fontFamily=Permanent Marker;fontSize=16;points=[];verticalAlign=top;stackBorder=0;resizable=1;strokeWidth=2;sketch=1;disableMultiStroke=1;" parent="1" vertex="1">
          <mxGeometry x="160" y="80" width="540" height="640" as="geometry" />
        </mxCell>
        <object label="TO DO" status="New" id="_5mSTuPxr-ZiKRkBDSY7-2">
          <mxCell style="swimlane;strokeWidth=2;fontFamily=Permanent Marker;html=0;startSize=1;verticalAlign=bottom;spacingBottom=5;points=[];childLayout=stackLayout;stackBorder=20;stackSpacing=20;resizeLast=0;resizeParent=1;horizontalStack=0;collapsible=0;sketch=1;strokeColor=none;fillStyle=solid;fillColor=#A0522D;" parent="_5mSTuPxr-ZiKRkBDSY7-1" vertex="1">
            <mxGeometry y="28" width="180" height="612" as="geometry" />
          </mxCell>
        </object>
        <object label="&lt;font face=&quot;Georgia&quot;&gt;&lt;span style=&quot;font-weight: normal&quot;&gt;Выбрать сервер для запуска&lt;/span&gt;&lt;br&gt;New&lt;/font&gt;" placeholders="1" id="_5mSTuPxr-ZiKRkBDSY7-3">
          <mxCell style="whiteSpace=wrap;html=1;strokeWidth=2;fillColor=#FFBD7A;fontStyle=1;spacingTop=0;rounded=1;arcSize=9;points=[];sketch=1;fontFamily=Permanent Marker;hachureGap=8;fillWeight=1;" parent="_5mSTuPxr-ZiKRkBDSY7-2" vertex="1">
            <mxGeometry x="20" y="21" width="140" height="80" as="geometry" />
          </mxCell>
        </object>
        <object label="&lt;font face=&quot;Georgia&quot;&gt;&lt;span style=&quot;font-weight: normal&quot;&gt;Провести Unit-тесты навигационной часть&lt;/span&gt;&lt;br&gt;New&lt;/font&gt;" placeholders="1" id="_5mSTuPxr-ZiKRkBDSY7-4">
          <mxCell style="whiteSpace=wrap;html=1;strokeWidth=2;fillColor=#FFBD7A;fontStyle=1;spacingTop=0;rounded=1;arcSize=9;points=[];sketch=1;fontFamily=Permanent Marker;hachureGap=8;fillWeight=1;" parent="_5mSTuPxr-ZiKRkBDSY7-2" vertex="1">
            <mxGeometry x="20" y="121" width="140" height="80" as="geometry" />
          </mxCell>
        </object>
        <object label="&lt;font face=&quot;Georgia&quot;&gt;&lt;span style=&quot;font-weight: 400&quot;&gt;Провести Unit-тесты реляционной части&lt;/span&gt;&lt;br&gt;New&lt;br&gt;&lt;/font&gt;" placeholders="1" id="_5mSTuPxr-ZiKRkBDSY7-5">
          <mxCell style="whiteSpace=wrap;html=1;strokeWidth=2;fillColor=#FFBD7A;fontStyle=1;spacingTop=0;rounded=1;arcSize=9;points=[];sketch=1;fontFamily=Permanent Marker;hachureGap=8;fillWeight=1;" parent="_5mSTuPxr-ZiKRkBDSY7-2" vertex="1">
            <mxGeometry x="20" y="221" width="140" height="80" as="geometry" />
          </mxCell>
        </object>
        <object label="&lt;font face=&quot;Georgia&quot;&gt;&lt;span style=&quot;font-weight: 400&quot;&gt;Оценить безопасность созданных Models&lt;/span&gt;&lt;br&gt;New&lt;br&gt;&lt;/font&gt;" placeholders="1" id="CyRvQFG2siPY6FwLZdpn-9">
          <mxCell style="whiteSpace=wrap;html=1;strokeWidth=2;fillColor=#FFBD7A;fontStyle=1;spacingTop=0;rounded=1;arcSize=9;points=[];sketch=1;fontFamily=Permanent Marker;hachureGap=8;fillWeight=1;" vertex="1" parent="_5mSTuPxr-ZiKRkBDSY7-2">
            <mxGeometry x="20" y="321" width="140" height="80" as="geometry" />
          </mxCell>
        </object>
        <object label="DOING" status="In progress" id="_5mSTuPxr-ZiKRkBDSY7-6">
          <mxCell style="swimlane;strokeWidth=2;fontFamily=Permanent Marker;html=0;startSize=1;verticalAlign=bottom;spacingBottom=5;points=[];childLayout=stackLayout;stackBorder=20;stackSpacing=20;resizeLast=0;resizeParent=1;horizontalStack=0;collapsible=0;sketch=1;strokeColor=none;fillStyle=solid;fillColor=#006600;" parent="_5mSTuPxr-ZiKRkBDSY7-1" vertex="1">
            <mxGeometry x="180" y="28" width="180" height="612" as="geometry" />
          </mxCell>
        </object>
        <object label="&lt;font face=&quot;Georgia&quot;&gt;&lt;span style=&quot;font-weight: normal&quot;&gt;Реализовать основные фронтенд-состовляющие&lt;br&gt;для index страницы&lt;/span&gt;&lt;br&gt;In progress&lt;/font&gt;" placeholders="1" id="_5mSTuPxr-ZiKRkBDSY7-8">
          <mxCell style="whiteSpace=wrap;html=1;strokeWidth=2;fillColor=#78FFA5;fontStyle=1;spacingTop=0;rounded=1;arcSize=9;points=[];sketch=1;fontFamily=Permanent Marker;hachureGap=8;fillWeight=1;" parent="_5mSTuPxr-ZiKRkBDSY7-6" vertex="1">
            <mxGeometry x="20" y="21" width="140" height="80" as="geometry" />
          </mxCell>
        </object>
        <object label="&lt;font face=&quot;Georgia&quot;&gt;&lt;span style=&quot;font-weight: normal&quot;&gt;Реализовать основные фронтенд-состовляющие&lt;br&gt;для shop страницы&lt;/span&gt;&lt;br&gt;In progress&lt;/font&gt;" placeholders="1" id="CyRvQFG2siPY6FwLZdpn-6">
          <mxCell style="whiteSpace=wrap;html=1;strokeWidth=2;fillColor=#78FFA5;fontStyle=1;spacingTop=0;rounded=1;arcSize=9;points=[];sketch=1;fontFamily=Permanent Marker;hachureGap=8;fillWeight=1;" vertex="1" parent="_5mSTuPxr-ZiKRkBDSY7-6">
            <mxGeometry x="20" y="121" width="140" height="80" as="geometry" />
          </mxCell>
        </object>
        <object label="&lt;font face=&quot;Georgia&quot;&gt;&lt;span style=&quot;font-weight: normal&quot;&gt;Реализовать основной фронтенд&lt;br&gt;для history страницы&lt;/span&gt;&lt;br&gt;In progress&lt;/font&gt;" placeholders="1" id="CyRvQFG2siPY6FwLZdpn-7">
          <mxCell style="whiteSpace=wrap;html=1;strokeWidth=2;fillColor=#78FFA5;fontStyle=1;spacingTop=0;rounded=1;arcSize=9;points=[];sketch=1;fontFamily=Permanent Marker;hachureGap=8;fillWeight=1;" vertex="1" parent="_5mSTuPxr-ZiKRkBDSY7-6">
            <mxGeometry x="20" y="221" width="140" height="80" as="geometry" />
          </mxCell>
        </object>
        <object label="&lt;font face=&quot;Georgia&quot;&gt;&lt;span style=&quot;font-weight: normal&quot;&gt;Реализовать СУБД полями класса таблиц&lt;/span&gt;&lt;br&gt;In progress&lt;br&gt;&lt;/font&gt;" placeholders="1" id="CyRvQFG2siPY6FwLZdpn-8">
          <mxCell style="whiteSpace=wrap;html=1;strokeWidth=2;fillColor=#78FFA5;fontStyle=1;spacingTop=0;rounded=1;arcSize=9;points=[];sketch=1;fontFamily=Permanent Marker;hachureGap=8;fillWeight=1;" vertex="1" parent="_5mSTuPxr-ZiKRkBDSY7-6">
            <mxGeometry x="20" y="321" width="140" height="80" as="geometry" />
          </mxCell>
        </object>
        <object label="DONE" status="Completed" id="_5mSTuPxr-ZiKRkBDSY7-9">
          <mxCell style="swimlane;strokeWidth=2;fontFamily=Permanent Marker;html=0;startSize=1;verticalAlign=bottom;spacingBottom=5;points=[];childLayout=stackLayout;stackBorder=20;stackSpacing=20;resizeLast=0;resizeParent=1;horizontalStack=0;collapsible=0;sketch=1;strokeColor=none;fillStyle=solid;fillColor=#1BA1E2;" parent="_5mSTuPxr-ZiKRkBDSY7-1" vertex="1">
            <mxGeometry x="360" y="28" width="180" height="612" as="geometry" />
          </mxCell>
        </object>
        <object label="&lt;font face=&quot;Georgia&quot;&gt;&lt;span style=&quot;font-weight: normal&quot;&gt;Выбор языка программирования&lt;/span&gt;&lt;br&gt;Completed: Python&lt;/font&gt;" placeholders="1" id="_5mSTuPxr-ZiKRkBDSY7-10">
          <mxCell style="whiteSpace=wrap;html=1;strokeWidth=2;fillColor=#69F5FF;fontStyle=1;spacingTop=0;rounded=1;arcSize=9;points=[];sketch=1;fontFamily=Permanent Marker;hachureGap=8;fillWeight=1;" parent="_5mSTuPxr-ZiKRkBDSY7-9" vertex="1">
            <mxGeometry x="20" y="21" width="140" height="80" as="geometry" />
          </mxCell>
        </object>
        <object label="&lt;font face=&quot;Georgia&quot;&gt;&lt;span style=&quot;font-weight: normal&quot;&gt;Выбор фреймворка&lt;/span&gt;&lt;br&gt;Completed: Django&lt;/font&gt;" placeholders="1" id="_5mSTuPxr-ZiKRkBDSY7-11">
          <mxCell style="whiteSpace=wrap;html=1;strokeWidth=2;fillColor=#69F5FF;fontStyle=1;spacingTop=0;rounded=1;arcSize=9;points=[];sketch=1;fontFamily=Permanent Marker;hachureGap=8;fillWeight=1;" parent="_5mSTuPxr-ZiKRkBDSY7-9" vertex="1">
            <mxGeometry x="20" y="121" width="140" height="80" as="geometry" />
          </mxCell>
        </object>
        <object label="&lt;font face=&quot;Georgia&quot;&gt;&lt;span style=&quot;font-weight: normal&quot;&gt;Определение цели проекта&lt;/span&gt;&lt;br&gt;Completed&lt;/font&gt;" placeholders="1" id="_5mSTuPxr-ZiKRkBDSY7-12">
          <mxCell style="whiteSpace=wrap;html=1;strokeWidth=2;fillColor=#69F5FF;fontStyle=1;spacingTop=0;rounded=1;arcSize=9;points=[];sketch=1;fontFamily=Permanent Marker;hachureGap=8;fillWeight=1;" parent="_5mSTuPxr-ZiKRkBDSY7-9" vertex="1">
            <mxGeometry x="20" y="221" width="140" height="80" as="geometry" />
          </mxCell>
        </object>
        <object label="&lt;font face=&quot;Georgia&quot;&gt;&lt;span style=&quot;font-weight: normal&quot;&gt;Создать шаблон проекта в Figma&lt;/span&gt;&lt;br&gt;Completed&lt;/font&gt;" placeholders="1" id="CyRvQFG2siPY6FwLZdpn-3">
          <mxCell style="whiteSpace=wrap;html=1;strokeWidth=2;fillColor=#69F5FF;fontStyle=1;spacingTop=0;rounded=1;arcSize=9;points=[];sketch=1;fontFamily=Permanent Marker;hachureGap=8;fillWeight=1;" vertex="1" parent="_5mSTuPxr-ZiKRkBDSY7-9">
            <mxGeometry x="20" y="321" width="140" height="80" as="geometry" />
          </mxCell>
        </object>
        <object label="&lt;font face=&quot;Georgia&quot;&gt;&lt;span style=&quot;font-weight: normal&quot;&gt;Выбрать реляционную СУБД для проекта&lt;/span&gt;&lt;br&gt;Completed: PostgreSQL&lt;/font&gt;" placeholders="1" id="CyRvQFG2siPY6FwLZdpn-4">
          <mxCell style="whiteSpace=wrap;html=1;strokeWidth=2;fillColor=#69F5FF;fontStyle=1;spacingTop=0;rounded=1;arcSize=9;points=[];sketch=1;fontFamily=Permanent Marker;hachureGap=8;fillWeight=1;" vertex="1" parent="_5mSTuPxr-ZiKRkBDSY7-9">
            <mxGeometry x="20" y="421" width="140" height="80" as="geometry" />
          </mxCell>
        </object>
        <object label="&lt;font face=&quot;Georgia&quot;&gt;&lt;span style=&quot;font-weight: normal&quot;&gt;Организовать шаблон СУБД&lt;/span&gt;&lt;br&gt;Completed&lt;/font&gt;" placeholders="1" id="CyRvQFG2siPY6FwLZdpn-5">
          <mxCell style="whiteSpace=wrap;html=1;strokeWidth=2;fillColor=#69F5FF;fontStyle=1;spacingTop=0;rounded=1;arcSize=9;points=[];sketch=1;fontFamily=Permanent Marker;hachureGap=8;fillWeight=1;" vertex="1" parent="_5mSTuPxr-ZiKRkBDSY7-9">
            <mxGeometry x="20" y="521" width="140" height="80" as="geometry" />
          </mxCell>
        </object>
        <mxCell id="CyRvQFG2siPY6FwLZdpn-2" value="&lt;font style=&quot;font-size: 18px&quot; face=&quot;Georgia&quot;&gt;Разработка web-application card Worlds&lt;/font&gt;" style="text;html=1;strokeColor=none;fillColor=none;align=center;verticalAlign=middle;whiteSpace=wrap;rounded=0;" vertex="1" parent="1">
          <mxGeometry x="160" y="20" width="540" height="30" as="geometry" />
        </mxCell>
      </root>
    </mxGraphModel>
  </diagram>
</mxfile>
